<?xml version="1.0" encoding="UTF-8" standalone="no"?>
<svg
   xmlns:dc="http://purl.org/dc/elements/1.1/"
   xmlns:cc="http://creativecommons.org/ns#"
   xmlns:rdf="http://www.w3.org/1999/02/22-rdf-syntax-ns#"
   xmlns:svg="http://www.w3.org/2000/svg"
   xmlns="http://www.w3.org/2000/svg"
   xmlns:sodipodi="http://sodipodi.sourceforge.net/DTD/sodipodi-0.dtd"
   xmlns:inkscape="http://www.inkscape.org/namespaces/inkscape"
   width="512"
   height="512"
   viewBox="0 0 512 512"
   version="1.1"
   id="svg6"
   sodipodi:docname="icon_leaderboard.svg"
   inkscape:version="1.0.2 (e86c870879, 2021-01-15, custom)"
   inkscape:export-filename="/home/lucasnlm/Desktop/new.png"
   inkscape:export-xdpi="96"
   inkscape:export-ydpi="96">
  <metadata
     id="metadata12">
    <rdf:RDF>
      <cc:Work
         rdf:about="">
        <dc:format>image/svg+xml</dc:format>
        <dc:type
           rdf:resource="http://purl.org/dc/dcmitype/StillImage" />
        <dc:title />
      </cc:Work>
    </rdf:RDF>
  </metadata>
  <defs
     id="defs10" />
  <sodipodi:namedview
     pagecolor="#ffffff"
     bordercolor="#666666"
     borderopacity="1"
     objecttolerance="10"
     gridtolerance="10"
     guidetolerance="10"
     inkscape:pageopacity="0"
     inkscape:pageshadow="2"
     inkscape:window-width="1920"
     inkscape:window-height="1017"
     id="namedview8"
     showgrid="false"
     inkscape:zoom="0.70710678"
     inkscape:cx="550.85272"
     inkscape:cy="377.9975"
     inkscape:window-x="0"
     inkscape:window-y="0"
     inkscape:window-maximized="1"
     inkscape:current-layer="svg6"
     inkscape:document-rotation="0"
     inkscape:pagecheckerboard="false"
     borderlayer="true" />
  <circle
     style="fill:#5599ff;fill-opacity:1;stroke:none;stroke-width:4;stroke-linecap:round;stroke-linejoin:round;stroke-dashoffset:68.3982;paint-order:stroke fill markers"
     id="path845-62"
     cx="415.31149"
     cy="575.64838"
     r="333.86322" />
  <ellipse
     style="fill:#ff6600;fill-opacity:1;stroke:none;stroke-width:4.27553;stroke-linecap:round;stroke-linejoin:round;stroke-dashoffset:68.3982;paint-order:stroke fill markers"
     id="path845-6-7-5"
     cx="625.74481"
     cy="122.65488"
     rx="381.44193"
     ry="333.86322" />
  <ellipse
     style="fill:#abc837;fill-opacity:1;stroke:none;stroke-width:3.9869;stroke-linecap:round;stroke-linejoin:round;stroke-dashoffset:68.3982;paint-order:stroke fill markers"
     id="path845-6-3"
     cx="-73.275581"
     cy="246.52548"
     rx="331.67908"
     ry="333.86322" />
  <circle
     style="fill:#ffd42a;fill-opacity:0.765136;stroke:none;stroke-width:4;stroke-linecap:round;stroke-linejoin:round;stroke-dashoffset:68.3982;paint-order:stroke fill markers"
     id="path845-3"
     cx="-4.0727949"
     cy="40.61451"
     r="333.86322" />
  <ellipse
     style="fill:#abc837;stroke:none;stroke-width:3.9869;stroke-linecap:round;stroke-linejoin:round;stroke-dashoffset:68.3982;paint-order:stroke fill markers;fill-opacity:0.6556074"
     id="path845-6"
     cx="123.2562"
     cy="609.19604"
     rx="331.67908"
     ry="333.86322" />
  <ellipse
     style="fill:#ffcc00;fill-opacity:1;stroke:none;stroke-width:2.24868;stroke-linecap:round;stroke-linejoin:round;stroke-dashoffset:68.3982;paint-order:stroke fill markers"
     id="path845-5"
     cx="159.76305"
     cy="59.016251"
     rx="177.83775"
     ry="198.08344" />
  <ellipse
     style="fill:#ff6600;fill-opacity:0.640602;stroke:none;stroke-width:4.27553;stroke-linecap:round;stroke-linejoin:round;stroke-dashoffset:68.3982;paint-order:stroke fill markers"
     id="path845-6-7"
     cx="450.00235"
     cy="-15.419925"
     rx="381.44193"
     ry="333.86322" />
  <circle
     style="fill:#5599ff;stroke:none;stroke-width:4;stroke-linecap:round;stroke-linejoin:round;stroke-dashoffset:68.3982;paint-order:stroke fill markers;fill-opacity:0.60737324"
     id="path845"
     cx="580.60089"
     cy="476.83759"
     r="333.86322" />
  <g
     id="g881"
     transform="matrix(1.8139093,0,0,1.8139093,68.156756,699.65417)">
    <path
       d="m 98.376129,-318.07953 a 73.602,73.602 0 0 0 -17.187,3.4 l -2.311,27.252 -26.94,-9.324 a 73.602,73.602 0 0 0 -10.276,12.877 l 16.697,23.709 -27.833,10.634 a 73.602,73.602 0 0 0 -0.159,4.84 73.602,73.602 0 0 0 0.814,10.917 l 28.983,7.683 -14.584,26.212 a 73.602,73.602 0 0 0 10.879,11.404 l 26.989,-12.674 5.495,28.51 a 73.602,73.602 0 0 0 15.024001,1.55 73.602,73.602 0 0 0 1.354,-0.013 l 11.997,-25.907 21.263,17.273 a 73.602,73.602 0 0 0 14.35,-10.002 l -7.007,-25.871 25.831,-0.41 a 73.602,73.602 0 0 0 4.992,-17.699 l -20.865,-14.527 18.93,-16.403 a 73.602,73.602 0 0 0 -7.339,-17.248 l -24.941,2.249 4.013,-25.08 a 73.602,73.602 0 0 0 -16.228,-8.687 l -18.195,18.294 z"
       stroke-width="95.1572"
       fill="#1a1a1a"
       stroke="#00000000"
       id="path2" />
    <path
       d="m 103.55713,-244.58453 m -60.612001,0 a 60.612,60.612 0 1 1 121.224001,0 60.612,60.612 0 1 1 -121.224001,0"
       stroke-width="42.2765"
       fill="#1a1a1a"
       stroke="#00000000"
       id="path4" />
  </g>
  <g
     style="fill:#ffffff"
     id="g859"
     transform="matrix(5.2263847,0,0,5.2263847,193.28338,193.28338)">
    <path
       d="M 11.99,2 C 6.47,2 2,6.48 2,12 2,17.52 6.47,22 11.99,22 17.52,22 22,17.52 22,12 22,6.48 17.52,2 11.99,2 Z M 12,20 C 7.58,20 4,16.42 4,12 4,7.58 7.58,4 12,4 c 4.42,0 8,3.58 8,8 0,4.42 -3.58,8 -8,8 z M 11.78,7 H 11.72 C 11.32,7 11,7.32 11,7.72 v 4.72 c 0,0.35 0.18,0.68 0.49,0.86 l 4.15,2.49 c 0.34,0.2 0.78,0.1 0.98,-0.24 0.21,-0.34 0.1,-0.79 -0.25,-0.99 L 12.5,12.26 V 7.72 C 12.5,7.32 12.18,7 11.78,7 Z"
       id="path847"
       style="fill:#ffffff" />
  </g>
</svg>
