<?xml version="1.0" encoding="UTF-8" standalone="no"?>
<svg
   xmlns:dc="http://purl.org/dc/elements/1.1/"
   xmlns:cc="http://creativecommons.org/ns#"
   xmlns:rdf="http://www.w3.org/1999/02/22-rdf-syntax-ns#"
   xmlns:svg="http://www.w3.org/2000/svg"
   xmlns="http://www.w3.org/2000/svg"
   xmlns:xlink="http://www.w3.org/1999/xlink"
   xmlns:sodipodi="http://sodipodi.sourceforge.net/DTD/sodipodi-0.dtd"
   xmlns:inkscape="http://www.inkscape.org/namespaces/inkscape"
   width="512"
   height="512"
   viewBox="0 0 512 512"
   version="1.1"
   id="svg6"
   sodipodi:docname="icon-new2.svg"
   inkscape:version="1.0.1 (3bc2e813f5, 2020-09-07)"
   inkscape:export-filename="/home/lucasnlm/Desktop/new2.png"
   inkscape:export-xdpi="96"
   inkscape:export-ydpi="96">
  <metadata
     id="metadata12">
    <rdf:RDF>
      <cc:Work
         rdf:about="">
        <dc:format>image/svg+xml</dc:format>
        <dc:type
           rdf:resource="http://purl.org/dc/dcmitype/StillImage" />
        <dc:title></dc:title>
      </cc:Work>
    </rdf:RDF>
  </metadata>
  <defs
     id="defs10">
    <linearGradient
       inkscape:collect="always"
       id="linearGradient1212">
      <stop
         style="stop-color:#ffffff;stop-opacity:1;"
         offset="0"
         id="stop1208" />
      <stop
         style="stop-color:#ffffff;stop-opacity:0;"
         offset="1"
         id="stop1210" />
    </linearGradient>
    <linearGradient
       inkscape:collect="always"
       id="linearGradient875">
      <stop
         style="stop-color:#fccb16;stop-opacity:1"
         offset="0"
         id="stop871" />
      <stop
         style="stop-color:#fc8716;stop-opacity:1"
         offset="1"
         id="stop873" />
    </linearGradient>
    <radialGradient
       inkscape:collect="always"
       xlink:href="#linearGradient875"
       id="radialGradient877"
       cx="418.62695"
       cy="-342.07159"
       fx="418.62695"
       fy="-342.07159"
       r="256.93677"
       gradientUnits="userSpaceOnUse"
       gradientTransform="matrix(0.99635409,0,0,0.99635409,-1223.0228,96.051359)" />
    <radialGradient
       inkscape:collect="always"
       xlink:href="#linearGradient1212"
       id="radialGradient1216"
       cx="270.1998"
       cy="278.72385"
       fx="270.1998"
       fy="278.72385"
       r="485.09924"
       gradientUnits="userSpaceOnUse"
       gradientTransform="matrix(0.69443754,0,0,0.69443754,82.562916,85.167545)" />
  </defs>
  <sodipodi:namedview
     pagecolor="#ffffff"
     bordercolor="#666666"
     borderopacity="1"
     objecttolerance="10"
     gridtolerance="10"
     guidetolerance="10"
     inkscape:pageopacity="0"
     inkscape:pageshadow="2"
     inkscape:window-width="1920"
     inkscape:window-height="1013"
     id="namedview8"
     showgrid="false"
     inkscape:zoom="0.5"
     inkscape:cx="208.38697"
     inkscape:cy="241.43722"
     inkscape:window-x="0"
     inkscape:window-y="0"
     inkscape:window-maximized="1"
     inkscape:current-layer="g973"
     inkscape:document-rotation="0"
     inkscape:pagecheckerboard="false"
     borderlayer="true" />
  <rect
     style="fill:url(#radialGradient877);fill-opacity:1;stroke-width:27.836;stroke-linecap:round;stroke-linejoin:round;stroke-miterlimit:4;stroke-dasharray:none;stroke-dashoffset:68.3982;stroke-opacity:0.698615;paint-order:stroke fill markers"
     id="rect869"
     width="512"
     height="512"
     x="-1061.9221"
     y="-500.77307" />
  <g
     id="g983">
    <circle
       style="fill:#5599ff;fill-opacity:1;stroke:none;stroke-width:4;stroke-linecap:round;stroke-linejoin:round;stroke-dashoffset:68.3982;paint-order:stroke fill markers"
       id="path845-62"
       cx="415.31149"
       cy="575.64838"
       r="333.86322" />
    <ellipse
       style="fill:#ff6600;fill-opacity:1;stroke:none;stroke-width:4.27553;stroke-linecap:round;stroke-linejoin:round;stroke-dashoffset:68.3982;paint-order:stroke fill markers"
       id="path845-6-7-5"
       cx="625.74481"
       cy="122.65488"
       rx="381.44193"
       ry="333.86322" />
    <ellipse
       style="fill:#abc837;fill-opacity:1;stroke:none;stroke-width:3.9869;stroke-linecap:round;stroke-linejoin:round;stroke-dashoffset:68.3982;paint-order:stroke fill markers"
       id="path845-6-3"
       cx="-73.275581"
       cy="246.52548"
       rx="331.67908"
       ry="333.86322" />
    <circle
       style="fill:#ffd42a;fill-opacity:0.765136;stroke:none;stroke-width:4;stroke-linecap:round;stroke-linejoin:round;stroke-dashoffset:68.3982;paint-order:stroke fill markers"
       id="path845-3"
       cx="-4.0727949"
       cy="40.61451"
       r="333.86322" />
    <ellipse
       style="fill:#abc837;stroke:none;stroke-width:3.9869;stroke-linecap:round;stroke-linejoin:round;stroke-dashoffset:68.3982;paint-order:stroke fill markers;fill-opacity:0.6556074"
       id="path845-6"
       cx="123.2562"
       cy="609.19604"
       rx="331.67908"
       ry="333.86322" />
    <ellipse
       style="fill:#ffcc00;fill-opacity:1;stroke:none;stroke-width:2.24868;stroke-linecap:round;stroke-linejoin:round;stroke-dashoffset:68.3982;paint-order:stroke fill markers"
       id="path845-5"
       cx="159.76305"
       cy="59.016251"
       rx="177.83775"
       ry="198.08344" />
    <ellipse
       style="fill:#ff6600;fill-opacity:0.640602;stroke:none;stroke-width:4.27553;stroke-linecap:round;stroke-linejoin:round;stroke-dashoffset:68.3982;paint-order:stroke fill markers"
       id="path845-6-7"
       cx="450.00235"
       cy="-15.419925"
       rx="381.44193"
       ry="333.86322" />
    <circle
       style="fill:#5599ff;stroke:none;stroke-width:4;stroke-linecap:round;stroke-linejoin:round;stroke-dashoffset:68.3982;paint-order:stroke fill markers;fill-opacity:0.60737324"
       id="path845"
       cx="580.60089"
       cy="476.83759"
       r="333.86322" />
  </g>
  <rect
     style="fill:url(#radialGradient1216);fill-opacity:1;stroke:none;stroke-width:4;stroke-linecap:round;stroke-linejoin:round;stroke-dashoffset:68.3982;paint-order:stroke fill markers"
     id="rect1153"
     width="970.19849"
     height="970.19849"
     x="-214.89944"
     y="-206.3754" />
  <g
     id="g973"
     transform="translate(1304.4039,-314.50555)">
    <g
       id="g881"
       transform="matrix(1.8139093,0,0,1.8139093,-1236.2471,1014.1597)"
       style="stroke:none;stroke-opacity:0;fill:#241c1c">
      <path
         id="path2"
         d="M 246.60156 122.6875 A 133.50735 133.50735 0 0 0 215.42578 128.85352 L 213.23242 154.71289 A 109.94467 109.94467 0 0 0 187.43945 170.05078 L 162.36719 161.37305 A 133.50735 133.50735 0 0 0 143.72852 184.73242 L 158.3457 205.48828 A 109.94467 109.94467 0 0 0 147.56641 237.84375 L 123.5293 247.02734 A 133.50735 133.50735 0 0 0 123.24023 255.80664 A 133.50735 133.50735 0 0 0 124.7168 275.60742 L 149.19727 282.09766 A 109.94467 109.94467 0 0 0 163.17383 314.91406 L 150.83594 337.08984 A 133.50735 133.50735 0 0 0 170.56836 357.77734 L 193.98242 346.78125 A 109.94467 109.94467 0 0 0 224.65039 361.38086 L 229.49219 386.50195 A 133.50735 133.50735 0 0 0 256.74414 389.3125 A 133.50735 133.50735 0 0 0 259.19922 389.28906 L 270.45312 364.98828 A 109.94467 109.94467 0 0 0 299.18945 357.10547 L 319.53125 373.62891 A 133.50735 133.50735 0 0 0 345.56055 355.48633 L 338.3457 328.84961 A 109.94467 109.94467 0 0 0 352.73828 308.24219 L 379.70508 307.81445 A 133.50735 133.50735 0 0 0 388.75977 275.70898 L 365.87891 259.7793 A 109.94467 109.94467 0 0 0 365.94531 256 A 109.94467 109.94467 0 0 0 364.4043 237.66797 L 385.25 219.60547 A 133.50735 133.50735 0 0 0 371.9375 188.32031 L 344.51758 190.79102 A 109.94467 109.94467 0 0 0 329.58984 174.31641 L 333.97656 146.90625 A 133.50735 133.50735 0 0 0 304.54102 131.14844 L 285.66016 150.13086 A 109.94467 109.94467 0 0 0 260.65234 146.1543 L 246.60156 122.6875 z "
         transform="matrix(0.55129548,0,0,0.55129548,-37.574536,-385.71617)"
         style="stroke:none;stroke-opacity:0;stroke-width:10.00000002;stroke-miterlimit:4;stroke-dasharray:none;stroke-linejoin:round;stroke-linecap:round;paint-order:stroke markers fill;fill:#241c1c" />
    </g>
  </g>
</svg>
