<?xml version="1.0" encoding="UTF-8" standalone="no"?>
<svg
   xmlns:dc="http://purl.org/dc/elements/1.1/"
   xmlns:cc="http://creativecommons.org/ns#"
   xmlns:rdf="http://www.w3.org/1999/02/22-rdf-syntax-ns#"
   xmlns:svg="http://www.w3.org/2000/svg"
   xmlns="http://www.w3.org/2000/svg"
   xmlns:xlink="http://www.w3.org/1999/xlink"
   xmlns:sodipodi="http://sodipodi.sourceforge.net/DTD/sodipodi-0.dtd"
   xmlns:inkscape="http://www.inkscape.org/namespaces/inkscape"
   width="180"
   height="120"
   viewBox="0 0 180 120"
   version="1.1"
   id="svg6"
   sodipodi:docname="promoGraphic.svg"
   inkscape:version="1.0.1 (3bc2e813f5, 2020-09-07)">
  <metadata
     id="metadata12">
    <rdf:RDF>
      <cc:Work
         rdf:about="">
        <dc:format>image/svg+xml</dc:format>
        <dc:type
           rdf:resource="http://purl.org/dc/dcmitype/StillImage" />
        <dc:title></dc:title>
      </cc:Work>
    </rdf:RDF>
  </metadata>
  <defs
     id="defs10">
    <linearGradient
       inkscape:collect="always"
       id="linearGradient875">
      <stop
         style="stop-color:#fccb16;stop-opacity:1"
         offset="0"
         id="stop871" />
      <stop
         style="stop-color:#fc8716;stop-opacity:1"
         offset="1"
         id="stop873" />
    </linearGradient>
    <radialGradient
       inkscape:collect="always"
       xlink:href="#linearGradient875"
       id="radialGradient877"
       cx="418.62695"
       cy="-342.07159"
       fx="418.62695"
       fy="-342.07159"
       r="256.93677"
       gradientUnits="userSpaceOnUse"
       gradientTransform="matrix(0.38311289,0,0,0.38311289,-70.381392,191.05202)" />
  </defs>
  <sodipodi:namedview
     pagecolor="#ffffff"
     bordercolor="#666666"
     borderopacity="1"
     objecttolerance="10"
     gridtolerance="10"
     guidetolerance="10"
     inkscape:pageopacity="0"
     inkscape:pageshadow="2"
     inkscape:window-width="1920"
     inkscape:window-height="1015"
     id="namedview8"
     showgrid="false"
     inkscape:zoom="1"
     inkscape:cx="239.07009"
     inkscape:cy="107.76439"
     inkscape:window-x="0"
     inkscape:window-y="0"
     inkscape:window-maximized="1"
     inkscape:current-layer="svg6"
     inkscape:document-rotation="0"
     inkscape:pagecheckerboard="true"
     borderlayer="true" />
  <rect
     style="fill:url(#radialGradient877);fill-opacity:1;stroke-width:10.7034;stroke-linecap:round;stroke-linejoin:round;stroke-miterlimit:4;stroke-dasharray:none;stroke-dashoffset:68.3982;stroke-opacity:0.698615;paint-order:stroke fill markers"
     id="rect869"
     width="196.87158"
     height="196.87158"
     x="-8.435791"
     y="-38.435791" />
  <g
     id="g881"
     transform="matrix(0.43695012,0,0,0.43695012,44.7507,166.87124)">
    <path
       d="m 98.376129,-318.07953 a 73.602,73.602 0 0 0 -17.187,3.4 l -2.311,27.252 -26.94,-9.324 a 73.602,73.602 0 0 0 -10.276,12.877 l 16.697,23.709 -27.833,10.634 a 73.602,73.602 0 0 0 -0.159,4.84 73.602,73.602 0 0 0 0.814,10.917 l 28.983,7.683 -14.584,26.212 a 73.602,73.602 0 0 0 10.879,11.404 l 26.989,-12.674 5.495,28.51 a 73.602,73.602 0 0 0 15.024001,1.55 73.602,73.602 0 0 0 1.354,-0.013 l 11.997,-25.907 21.263,17.273 a 73.602,73.602 0 0 0 14.35,-10.002 l -7.007,-25.871 25.831,-0.41 a 73.602,73.602 0 0 0 4.992,-17.699 l -20.865,-14.527 18.93,-16.403 a 73.602,73.602 0 0 0 -7.339,-17.248 l -24.941,2.249 4.013,-25.08 a 73.602,73.602 0 0 0 -16.228,-8.687 l -18.195,18.294 z"
       stroke-width="95.1572"
       fill="#1a1a1a"
       stroke="#00000000"
       id="path2" />
    <path
       d="m 103.55713,-244.58453 m -60.612001,0 a 60.612,60.612 0 1 1 121.224001,0 60.612,60.612 0 1 1 -121.224001,0"
       stroke-width="42.2765"
       fill="#1a1a1a"
       stroke="#00000000"
       id="path4" />
  </g>
</svg>
