<?xml version="1.0" encoding="UTF-8" standalone="no"?>
<svg
   xmlns:dc="http://purl.org/dc/elements/1.1/"
   xmlns:cc="http://creativecommons.org/ns#"
   xmlns:rdf="http://www.w3.org/1999/02/22-rdf-syntax-ns#"
   xmlns:svg="http://www.w3.org/2000/svg"
   xmlns="http://www.w3.org/2000/svg"
   xmlns:xlink="http://www.w3.org/1999/xlink"
   id="svg8"
   version="1.1"
   viewBox="0 0 285.74999 508.00002"
   height="1440pt"
   width="810pt">
  <defs
     id="defs2" />
  <metadata
     id="metadata5">
    <rdf:RDF>
      <cc:Work
         rdf:about="">
        <dc:format>image/svg+xml</dc:format>
        <dc:type
           rdf:resource="http://purl.org/dc/dcmitype/StillImage" />
        <dc:title></dc:title>
      </cc:Work>
    </rdf:RDF>
  </metadata>
  <g
     transform="translate(0,211.00005)"
     id="layer1">
    <rect
       y="-89.776299"
       x="-3.2072332"
       height="401.80106"
       width="25.885805"
       id="rect826-3"
       style="opacity:1;fill:#e3d7f4;fill-opacity:1;stroke:#ac768d;stroke-width:0;stroke-linecap:round;stroke-linejoin:round;stroke-miterlimit:4;stroke-dasharray:none;stroke-opacity:1" />
    <rect
       y="-96.655472"
       x="263.07144"
       height="401.80106"
       width="28.023962"
       id="rect826-3-6"
       style="opacity:1;fill:#e5d5ff;fill-opacity:1;stroke:#ac768d;stroke-width:0;stroke-linecap:round;stroke-linejoin:round;stroke-miterlimit:4;stroke-dasharray:none;stroke-opacity:1" />
    <image
       width="240.481"
       height="427.52179"
       preserveAspectRatio="none"
       style="image-rendering:optimizeQuality"
       xlink:href="../image_6.png"
       id="image842"
       x="22.634499"
       y="-100.88881" />
    <rect
       y="-223.28062"
       x="-6.9490075"
       height="135.09181"
       width="296.44077"
       id="rect826"
       style="opacity:1;fill:#e5d5ff;fill-opacity:1;stroke:#ac768d;stroke-width:0;stroke-linecap:round;stroke-linejoin:round;stroke-miterlimit:4;stroke-dasharray:none;stroke-opacity:1" />
    <g
       transform="matrix(0.51322136,0,0,0.51322136,-135.21545,-126.05449)"
       id="g5034">
      <path
         id="path5024"
         d="m 347.60281,52.344407 c -24.9,0 -45,20.1 -45,45 V 233.8444 h -5.5 v 128 h 5.5 v 57.5 h -5.5 v 66 h 5.5 v 554 c 0,24.9 20.1,45 45,45 h 390.00004 c 24.9,0 45,-20.1 45,-45 v -749 h 4 v -61.99999 h -4 V 97.344407 c 0,-24.9 -20.1,-45 -45,-45 z m -6.5,24.40039 h 401.50004 c 15.1,0 27.29883,12.200782 27.29883,27.300783 v 926.00002 c -0.1,15.1 -12.30039,27.2988 -27.40039,27.2988 H 341.10281 c -15.1,0 -27.3007,-12.1988 -27.3007,-27.2988 V 104.04558 c 0,-15.100001 12.2007,-27.300783 27.3007,-27.300783 z" />
    </g>
    <text
       transform="scale(1.0035095,0.99650277)"
       id="text868-8"
       y="-154.37801"
       x="142.78806"
       style="font-style:normal;font-variant:normal;font-weight:bold;font-stretch:normal;font-size:12.13960361px;line-height:1.25;font-family:sans-serif;-inkscape-font-specification:'sans-serif Bold';text-align:center;letter-spacing:0px;word-spacing:0px;text-anchor:middle;fill:#000000;fill-opacity:0.78431373;stroke:none;stroke-width:0.25361404;stroke-miterlimit:4;stroke-dasharray:none;stroke-opacity:1"
       xml:space="preserve"><tspan
         id="tspan870-3"
         transform="matrix(0.6341969,0,0,1,10.972699,0)"
         style="font-style:normal;font-variant:normal;font-weight:500;font-stretch:normal;font-size:16.18613815px;font-family:'Noto Sans';-inkscape-font-specification:'Noto Sans Medium';text-align:center;text-anchor:middle;fill:#000000;fill-opacity:0.78431373;stroke:none;stroke-width:0.31846467;stroke-miterlimit:4;stroke-dasharray:none;stroke-opacity:1"
         y="-154.37801"
         x="142.78806">Crie jogos <tspan
   id="tspan1560"
   style="-inkscape-font-specification:'Noto Sans Bold';font-family:'Noto Sans';font-weight:bold;font-style:normal;font-stretch:normal;font-variant:normal">customizados</tspan></tspan><tspan
         id="tspan1558"
         transform="matrix(0.6341969,0,0,1,10.972699,0)"
         style="font-style:normal;font-variant:normal;font-weight:500;font-stretch:normal;font-size:16.18613815px;font-family:'Noto Sans';-inkscape-font-specification:'Noto Sans Medium';text-align:center;text-anchor:middle;fill:#000000;fill-opacity:0.78431373;stroke:none;stroke-width:0.31846467;stroke-miterlimit:4;stroke-dasharray:none;stroke-opacity:1"
         y="-134.14534"
         x="142.78806">e mais desafiadores!</tspan></text>
  </g>
  <style
     type="text/css"
     id="style5022">
	.st0{fill:#FFFFFF;}
</style>
</svg>
