<?xml version="1.0" encoding="UTF-8" standalone="no"?>
<svg
   xmlns:dc="http://purl.org/dc/elements/1.1/"
   xmlns:cc="http://creativecommons.org/ns#"
   xmlns:rdf="http://www.w3.org/1999/02/22-rdf-syntax-ns#"
   xmlns:svg="http://www.w3.org/2000/svg"
   xmlns="http://www.w3.org/2000/svg"
   xmlns:sodipodi="http://sodipodi.sourceforge.net/DTD/sodipodi-0.dtd"
   xmlns:inkscape="http://www.inkscape.org/namespaces/inkscape"
   width="256"
   height="256"
   viewBox="0 0 67.733331 67.733331"
   version="1.1"
   id="svg8"
   inkscape:version="1.0.1 (3bc2e813f5, 2020-09-07)"
   sodipodi:docname="flag.svg"
   inkscape:export-filename="/home/lucasnlm/flag.png"
   inkscape:export-xdpi="96"
   inkscape:export-ydpi="96">
  <defs
     id="defs2" />
  <sodipodi:namedview
     id="base"
     pagecolor="#ffffff"
     bordercolor="#666666"
     borderopacity="1.0"
     inkscape:pageopacity="0.0"
     inkscape:pageshadow="2"
     inkscape:zoom="0.49497475"
     inkscape:cx="-522.68912"
     inkscape:cy="-91.413484"
     inkscape:document-units="mm"
     inkscape:current-layer="g1013"
     inkscape:document-rotation="0"
     showgrid="false"
     units="px"
     inkscape:window-width="1920"
     inkscape:window-height="1013"
     inkscape:window-x="0"
     inkscape:window-y="0"
     inkscape:window-maximized="1" />
  <metadata
     id="metadata5">
    <rdf:RDF>
      <cc:Work
         rdf:about="">
        <dc:format>image/svg+xml</dc:format>
        <dc:type
           rdf:resource="http://purl.org/dc/dcmitype/StillImage" />
        <dc:title />
      </cc:Work>
    </rdf:RDF>
  </metadata>
  <g
     inkscape:label="Layer 1"
     inkscape:groupmode="layer"
     id="layer1">
    <g
       id="g1013"
       transform="matrix(0.26458333,0,0,0.26458333,-359.17801,-67.854226)">
      <path
         d="m 1499.6605,336.09228 -1.7857,-8.92886 c -0.6697,-3.42273 -3.7204,-5.95257 -7.2919,-5.95257 h -53.4243 c -4.0924,0 -7.4408,3.34832 -7.4408,7.44071 v 111.61073 c 0,4.09239 3.3484,7.44071 7.4408,7.44071 4.0923,0 7.4407,-3.34832 7.4407,-7.44071 V 395.618 h 41.668 l 1.7858,8.92886 c 0.6696,3.49713 3.7203,5.95257 7.2919,5.95257 h 38.5428 c 4.0924,0 7.4408,-3.34833 7.4408,-7.44072 v -59.52572 c 0,-4.09239 -3.3484,-7.44071 -7.4408,-7.44071 z"
         id="path1001"
         style="stroke-width:7.44071;fill:#ffffff" />
    </g>
  </g>
</svg>
