<?xml version="1.0" encoding="UTF-8" standalone="no"?>
<svg
   xmlns:dc="http://purl.org/dc/elements/1.1/"
   xmlns:cc="http://creativecommons.org/ns#"
   xmlns:rdf="http://www.w3.org/1999/02/22-rdf-syntax-ns#"
   xmlns:svg="http://www.w3.org/2000/svg"
   xmlns="http://www.w3.org/2000/svg"
   xmlns:sodipodi="http://sodipodi.sourceforge.net/DTD/sodipodi-0.dtd"
   xmlns:inkscape="http://www.inkscape.org/namespaces/inkscape"
   width="256"
   height="256"
   viewBox="0 0 67.733331 67.733331"
   version="1.1"
   id="svg8"
   inkscape:version="1.0.1 (3bc2e813f5, 2020-09-07)"
   sodipodi:docname="mine.svg"
   inkscape:export-filename="/home/lucasnlm/flag.png"
   inkscape:export-xdpi="96"
   inkscape:export-ydpi="96">
  <defs
     id="defs2" />
  <sodipodi:namedview
     id="base"
     pagecolor="#ffffff"
     bordercolor="#666666"
     borderopacity="1.0"
     inkscape:pageopacity="0.0"
     inkscape:pageshadow="2"
     inkscape:zoom="0.49497475"
     inkscape:cx="-522.68912"
     inkscape:cy="-91.413484"
     inkscape:document-units="mm"
     inkscape:current-layer="layer1"
     inkscape:document-rotation="0"
     showgrid="false"
     units="px"
     inkscape:window-width="1920"
     inkscape:window-height="1013"
     inkscape:window-x="0"
     inkscape:window-y="0"
     inkscape:window-maximized="1" />
  <metadata
     id="metadata5">
    <rdf:RDF>
      <cc:Work
         rdf:about="">
        <dc:format>image/svg+xml</dc:format>
        <dc:type
           rdf:resource="http://purl.org/dc/dcmitype/StillImage" />
        <dc:title />
      </cc:Work>
    </rdf:RDF>
  </metadata>
  <g
     inkscape:label="Layer 1"
     inkscape:groupmode="layer"
     id="layer1">
    <g
       id="g881"
       transform="matrix(0.30563107,0,0,0.30563107,2.2163904,108.6193)"
       style="fill:#ffffff">
      <path
         d="m 98.376129,-318.07953 a 73.602,73.602 0 0 0 -17.187,3.4 l -2.311,27.252 -26.94,-9.324 a 73.602,73.602 0 0 0 -10.276,12.877 l 16.697,23.709 -27.833,10.634 a 73.602,73.602 0 0 0 -0.159,4.84 73.602,73.602 0 0 0 0.814,10.917 l 28.983,7.683 -14.584,26.212 a 73.602,73.602 0 0 0 10.879,11.404 l 26.989,-12.674 5.495,28.51 a 73.602,73.602 0 0 0 15.024001,1.55 73.602,73.602 0 0 0 1.354,-0.013 l 11.997,-25.907 21.263,17.273 a 73.602,73.602 0 0 0 14.35,-10.002 l -7.007,-25.871 25.831,-0.41 a 73.602,73.602 0 0 0 4.992,-17.699 l -20.865,-14.527 18.93,-16.403 a 73.602,73.602 0 0 0 -7.339,-17.248 l -24.941,2.249 4.013,-25.08 a 73.602,73.602 0 0 0 -16.228,-8.687 l -18.195,18.294 z"
         stroke-width="95.1572"
         fill="#1a1a1a"
         stroke="#00000000"
         id="path2"
         style="fill:#ffffff" />
      <path
         d="m 103.55713,-244.58453 m -60.612001,0 a 60.612,60.612 0 1 1 121.224001,0 60.612,60.612 0 1 1 -121.224001,0"
         stroke-width="42.2765"
         fill="#1a1a1a"
         stroke="#00000000"
         id="path4"
         style="fill:#ffffff" />
    </g>
  </g>
</svg>
